<?xml version="1.0" encoding="UTF-8" standalone="no"?>


<svg
   xmlns:dc="http://purl.org/dc/elements/1.1/"
   xmlns:cc="http://creativecommons.org/ns#"
   xmlns:rdf="http://www.w3.org/1999/02/22-rdf-syntax-ns#"
   xmlns:svg="http://www.w3.org/2000/svg"
   xmlns="http://www.w3.org/2000/svg"
   xmlns:sodipodi="http://sodipodi.sourceforge.net/DTD/sodipodi-0.dtd"
   xmlns:inkscape="http://www.inkscape.org/namespaces/inkscape"
   width="717.46368"
   height="322.99716"
   viewBox="0 0 189.82893 85.459663"
   version="1.1"
   id="svg8"
   inkscape:version="0.92.4 (5da689c313, 2019-01-14)"
   sodipodi:docname="ABC_President_(2016).svg">
  <defs
     id="defs2" />
  <sodipodi:namedview
     id="base"
     pagecolor="#ffffff"
     bordercolor="#666666"
     borderopacity="1.0"
     inkscape:pageopacity="0.0"
     inkscape:pageshadow="2"
     inkscape:zoom="0.49497474"
     inkscape:cx="231.91494"
     inkscape:cy="323.99288"
     inkscape:document-units="mm"
     inkscape:current-layer="layer1"
     showgrid="false"
     fit-margin-top="0"
     fit-margin-left="0"
     fit-margin-right="0"
     fit-margin-bottom="0"
     units="px"
     inkscape:window-width="1366"
     inkscape:window-height="745"
     inkscape:window-x="-8"
     inkscape:window-y="-8"
     inkscape:window-maximized="1" />
  <metadata
     id="metadata5">
    <rdf:RDF>
      <cc:Work
         rdf:about="">
        <dc:format>image/svg+xml</dc:format>
        <dc:type
           rdf:resource="http://purl.org/dc/dcmitype/StillImage" />
        <dc:title></dc:title>
      </cc:Work>
    </rdf:RDF>
  </metadata>
  <g
     inkscape:label="Layer 1"
     inkscape:groupmode="layer"
     id="layer1"
     transform="translate(216.67999,-26.289906)">
    <path
       style="fill:#ee1b24;fill-opacity:1;stroke-width:0.26458332"
       d="m -159.69495,111.60269 c -9.85777,-0.71221 -16.04287,-1.87702 -23.28333,-4.38485 -5.2645,-1.82342 -11.84651,-5.4422 -15.34296,-8.435534 -1.97514,-1.69093 -4.4614,-4.30598 -5.64413,-5.93649 -1.06815,-1.47255 -1.50477,-2.39446 -1.13402,-2.39446 0.0571,0 1.57518,0.76535 3.37343,1.70077 1.79826,0.93542 3.80533,1.90095 4.46018,2.14562 0.65484,0.24467 1.54781,0.59899 1.98437,0.78737 5.76847,2.48917 15.4248,4.10898 24.51916,4.11297 4.16759,0.002 17.22691,-0.68725 20.06314,-1.05864 1.0914,-0.14292 3.35359,-0.39088 5.02708,-0.55102 3.4493,-0.33008 8.68694,-1.10502 16.00729,-2.36835 0.87313,-0.15068 3.01625,-0.508 4.7625,-0.79405 1.74625,-0.28604 4.48469,-0.76413 6.08542,-1.06241 1.60073,-0.29829 4.27963,-0.78106 5.95312,-1.07284 1.67349,-0.29178 3.93568,-0.69651 5.02709,-0.8994 1.0914,-0.2029 3.82984,-0.66993 6.08541,-1.03785 2.255577,-0.36792 5.232139,-0.85482 6.614587,-1.08199 3.310956,-0.54407 5.748986,-0.87544 9.921875,-1.34854 1.891771,-0.21447 3.618177,-0.44102 3.836459,-0.50343 0.218281,-0.0624 2.394786,-0.2454 4.836678,-0.40664 5.766057,-0.38072 13.811832,-0.38833 17.652905,-0.0167 10.997689,1.06406 22.464199,5.5855 28.539152,11.25347 0.939863,0.8769 2.181275,2.189674 2.758691,2.917284 1.261062,1.58906 0.921726,1.83614 -1.108678,0.80726 -5.071819,-2.570094 -10.301804,-3.724184 -20.928749,-4.618314 -5.883669,-0.49504 -15.055588,0.0117 -23.018749,1.27169 -5.806353,0.91874 -9.851258,1.620204 -10.049619,1.742804 -0.105947,0.0655 -1.192112,0.30162 -2.413696,0.52476 -1.221584,0.22314 -3.352154,0.65136 -4.734602,0.9516 -1.382448,0.30025 -3.641275,0.77467 -5.019617,1.05429 -2.318245,0.47028 -3.545438,0.73904 -7.812677,1.711 -0.87312,0.19887 -2.3614,0.50055 -3.30729,0.67041 -0.94589,0.16985 -2.07698,0.41222 -2.51354,0.53861 -0.43656,0.12639 -1.80578,0.42717 -3.04271,0.66839 -1.23693,0.24123 -3.0824,0.6062 -4.10104,0.81105 -2.68202,0.53934 -7.16396,1.31728 -11.1125,1.92881 -1.89177,0.29299 -3.67771,0.59398 -3.96875,0.66888 -0.52725,0.13568 -6.71898,0.88945 -8.73125,1.06292 -8.64941,0.74566 -15.70447,0.96928 -20.24063,0.64154 z"
       id="path4551"
       inkscape:connector-curvature="0" />
    <path
       style="fill:#d16707;fill-opacity:1;stroke-width:0.26458332"
       d="m -214.56514,75.502396 c -1.77029,-3.50001 -2.12828,-5.09026 -2.11447,-9.3927 0.2542,-2.865468 -0.13047,-5.607841 1.39723,-8.01841 0.15124,-0.15124 0.9162,1.09305 1.98944,3.23607 1.7259,3.44621 4.48363,7.77209 6.42214,10.074 6.41105,7.61293 17.42919,15.10477 26.27377,17.865 1.67349,0.52226 3.42709,1.06885 3.89689,1.21464 1.53108,0.47512 6.47325,1.28739 10.25832,1.68599 7.66808,0.80752 9.10166,0.92667 13.16302,1.09402 2.29195,0.0945 4.16719,0.26625 4.16719,0.38179 0,0.11554 -0.68461,0.28324 -1.52136,0.37267 -0.83674,0.0894 -2.23573,0.28684 -3.10885,0.43868 -20.23791,1.734695 -50.5209,0.178063 -60.82332,-18.95175 z"
       id="path4549"
       inkscape:connector-curvature="0"
       sodipodi:nodetypes="cccccccscsccc" />
    <path
       id="path4537"
       style="fill:#ed1b24;fill-opacity:1;stroke-width:0.26458332"
       d="m -98.5443,48.768236 c 2.598237,-0.91672 4.054244,-3.58327 3.472068,-6.35881 -0.368535,-1.75701 -1.084262,-2.81779 -2.540211,-3.76489 -1.082305,-0.70403 -1.16155,-0.71405 -6.321567,-0.79897 l -5.22552,-0.086 v 5.7084 5.7084 h 4.72923 c 3.5854,0 5.009022,-0.0987 5.886,-0.40812 z m 1.985594,22.46738 c 1.387742,-0.65852 2.95615,-2.61168 3.443558,-4.28831 0.535395,-1.84169 0.184962,-3.68991 -1.04775,-5.52595 -1.636901,-2.43806 -3.928825,-3.07125 -10.631002,-2.93705 l -4.23334,0.0848 -0.0708,6.54844 -0.0708,6.54844 h 5.85162 c 4.85548,0 6.005986,-0.0733 6.75845,-0.43033 z m -26.356494,10.48947 c -0.19337,-0.36133 -0.25792,-8.10888 -0.20774,-24.93698 0.0678,-22.72777 0.10507,-24.47757 0.54054,-25.35142 0.66674,-1.33792 2.13654,-2.76477 3.58083,-3.47616 1.23015,-0.60592 1.35728,-0.6131 12.22329,-0.68998 9.474965,-0.067 11.25224,-0.0172 12.964584,0.36342 2.453143,0.54529 4.402992,1.39239 6.178889,2.68437 1.76667,1.28527 1.997699,1.51446 3.273591,3.24761 2.481403,3.37068 3.378804,6.29972 3.135355,10.23353 -0.210976,3.40911 -0.930905,5.67444 -2.426533,7.63531 -0.830038,1.08823 -0.802997,1.45214 0.177488,2.38843 1.858634,1.77485 3.690035,5.19542 4.491026,8.38805 0.197041,0.78537 0.271333,2.43192 0.196977,4.36563 -0.106344,2.76561 -0.215484,3.33583 -0.999394,5.22134 -2.141191,5.15014 -6.139228,8.72275 -11.238717,10.04282 -1.331116,0.34459 -3.917823,0.40822 -16.593296,0.40822 -14.69801,0 -15.0223,-0.0111 -15.29689,-0.52419 z m -23.286,-20.06961 c 0,-0.12149 -0.40454,-1.52048 -0.89898,-3.10886 -1.18615,-3.81047 -1.94999,-6.41032 -2.16998,-7.38588 -0.0984,-0.43656 -0.26523,-0.91281 -0.37062,-1.05833 -0.10539,-0.14553 -0.27684,-0.62178 -0.38099,-1.05834 -0.31466,-1.31886 -1.38841,-2.51354 -2.2591,-2.51354 -1.38234,0 -1.92407,1.17016 -4.22597,9.12812 -0.46303,1.60073 -0.96714,3.20808 -1.12025,3.57188 -0.48172,1.14458 -0.73486,2.18351 -0.58937,2.41892 0.18091,0.29272 12.01526,0.29866 12.01526,0.006 z m -28.51969,20.65334 c -3.51127,-0.0593 -4.33814,-0.14524 -4.46036,-0.46376 -0.0825,-0.21505 0.38877,-1.73013 1.04732,-3.36683 1.26466,-3.14304 4.3805,-10.94246 9.69769,-24.27478 1.77011,-4.43839 3.32666,-8.30792 3.45899,-8.59896 0.13233,-0.29104 1.03211,-2.4937 1.99951,-4.89479 3.8831,-9.63787 4.3653,-10.75581 5.07709,-11.77081 0.40699,-0.58034 1.27109,-1.41378 1.92023,-1.85208 1.10695,-0.7474 1.3364,-0.7969 3.69381,-0.7969 2.27608,0 2.61607,0.0667 3.59881,0.70617 2.17887,1.41776 2.46918,1.98434 7.50131,14.63966 1.33086,3.34698 2.58344,6.4426 2.78352,6.87917 0.20007,0.43656 0.62597,1.50812 0.94642,2.38124 0.32046,0.87313 0.84804,2.18282 1.1724,2.91042 0.32436,0.72761 1.74498,4.23995 3.15693,7.80521 1.41195,3.56526 2.90885,7.31573 3.32643,8.33438 2.68698,6.55452 4.51381,11.38363 4.44412,11.74775 -0.0695,0.36306 -0.7561,0.44185 -4.84035,0.55537 -2.64031,0.0734 -5.2895,0.0183 -5.95001,-0.12373 -1.64274,-0.35325 -3.45886,-2.17616 -4.10443,-4.11979 -0.61311,-1.84591 -1.70567,-4.31688 -1.98534,-4.49012 -0.32022,-0.19835 -19.17471,-0.34086 -19.7777,-0.14949 -0.35728,0.1134 -0.86819,1.05942 -1.67684,3.10491 -1.39681,3.53328 -2.56702,5.03299 -4.26151,5.46143 -1.71148,0.43274 -2.1107,0.45494 -6.76804,0.37633 z m 113.612945,-3.21636 c -8.547496,-5.423299 -13.048502,-13.267317 -13.367375,-22.897735 -0.250741,-9.581926 4.052981,-18.757165 11.164021,-24.272115 4.102528,-3.10586 11.429346,-5.50677 16.773247,-5.4964 2.201262,0.004 6.970662,0.77281 9.029592,1.45501 2.001282,0.66311 6.520209,2.98232 7.180548,3.68522 0.430832,0.4586 0.561726,0.83206 0.449019,1.28113 -0.195974,0.78082 -3.665694,5.64939 -4.627779,6.49351 -1.885892,1.65466 -4.624684,2.05537 -7.478096,1.09413 -2.100858,-0.70773 -5.236721,-0.93477 -7.490394,-0.54231 -5.198124,0.90522 -9.69839,5.13452 -11.293354,10.61338 -0.200954,0.6903 -0.341064,2.50695 -0.336158,4.35862 0.0069,2.58771 0.118237,3.49312 0.60216,4.8948 1.215744,3.52138 2.734415,5.61858 5.450276,7.52653 3.157773,2.21839 6.734416,3.11735 10.145975,2.5501 1.113673,-0.18517 2.675575,-0.56363 3.470897,-0.84103 2.406247,-0.83926 4.594309,-0.51411 6.543106,0.97231 1.45574,1.11035 5.107731,6.27623 5.107731,7.22509 0,0.97458 -4.369501,3.45785 -7.9375,4.51104 -1.091407,0.32215 -2.341563,0.71023 -2.778125,0.86239 -7.266203,1.134491 -14.546249,0.158682 -20.607791,-3.47367 z"
       inkscape:connector-curvature="0"
       sodipodi:nodetypes="cccscccscccccccccsccccccccccscccsscsccccccscccccccccssccscscccscccccccccccccccscccccccccccsccc" />
    <path
       style="fill:#f6b40e;fill-opacity:1;stroke-width:0.26458332"
       d="m -188.54465,80.466706 c -1.64258,-0.97452 -6.44621,-4.65882 -8.17473,-6.26988 -9.30285,-8.67068 -12.95218,-15.82756 -12.4208,-24.35901 0.32505,-5.21875 2.81941,-10.05939 7.97867,-15.48365 2.14299,-2.25307 2.74312,-2.58787 2.47998,-1.38354 -0.0874,0.40019 -0.40859,1.8587 -0.71367,3.24115 -1.23702,5.6055 -1.69593,14.1011 -1.02441,18.96471 1.05281,7.62514 4.99838,15.42682 12.5906,24.89573 0.38175,0.47611 0.64251,0.91722 0.57947,0.98026 -0.063,0.063 -0.64583,-0.20056 -1.29511,-0.58577 z"
       id="path4533"
       inkscape:connector-curvature="0" />
  </g>
</svg>
